M48
; DRILL file {KiCad 8.0.3} date 2024-09-18T10:17:08+0200
; FORMAT={-:-/ absolute / inch / decimal}
; #@! TF.CreationDate,2024-09-18T10:17:08+02:00
; #@! TF.GenerationSoftware,Kicad,Pcbnew,8.0.3
; #@! TF.FileFunction,Plated,1,2,PTH
FMAT,2
INCH
; #@! TA.AperFunction,Plated,PTH,ViaDrill
T1C0.0118
; #@! TA.AperFunction,Plated,PTH,ComponentDrill
T2C0.0295
; #@! TA.AperFunction,Plated,PTH,ComponentDrill
T3C0.0315
; #@! TA.AperFunction,Plated,PTH,ComponentDrill
T4C0.0394
; #@! TA.AperFunction,Plated,PTH,ComponentDrill
T5C0.0433
; #@! TA.AperFunction,Plated,PTH,ComponentDrill
T6C0.1181
%
G90
G05
T1
X3.6482Y-2.6685
X5.3882Y-2.0485
X5.6882Y-4.9885
X5.8082Y-3.6685
X5.9482Y-2.0085
X5.9482Y-4.2485
X6.0482Y-2.9685
X6.5082Y-2.0885
X6.7882Y-3.7085
X6.8882Y-5.0085
X7.0882Y-2.0885
X7.1082Y-3.1085
X7.2082Y-4.3285
T2
X3.2482Y-3.1485
X3.2982Y-3.1485
X3.3482Y-3.1485
X3.5082Y-3.1285
X3.5582Y-3.1285
X3.6082Y-3.1285
T3
X3.1282Y-2.1101
X3.1282Y-2.2085
X3.4082Y-2.1285
X3.4082Y-2.2269
X4.5194Y-2.1677
X4.6178Y-2.1677
X5.1792Y-4.3978
X5.1792Y-4.8978
X5.2457Y-3.0592
X5.2457Y-3.5592
X5.2792Y-4.3978
X5.2792Y-4.8978
X5.3457Y-3.0592
X5.3457Y-3.5592
X5.3792Y-4.3978
X5.3792Y-4.8978
X5.4457Y-3.0592
X5.4457Y-3.5592
X5.4792Y-4.3978
X5.4792Y-4.8978
X5.5457Y-3.0592
X5.5457Y-3.5592
X5.5792Y-4.3978
X5.5792Y-4.8978
X5.6457Y-3.0592
X5.6457Y-3.5592
X5.6792Y-4.3978
X5.6792Y-4.8978
X5.7457Y-3.0592
X5.7457Y-3.5592
X5.7792Y-4.3978
X5.7792Y-4.8978
X5.8457Y-3.0592
X5.8457Y-3.5592
X5.8792Y-4.3978
X5.8792Y-4.8978
X5.9457Y-3.0592
X5.9457Y-3.5592
X6.2497Y-3.0647
X6.2497Y-3.5647
X6.3497Y-3.0647
X6.3497Y-3.5647
X6.3603Y-4.3978
X6.3603Y-4.8978
X6.4497Y-3.0647
X6.4497Y-3.5647
X6.4603Y-4.3978
X6.4603Y-4.8978
X6.5497Y-3.0647
X6.5497Y-3.5647
X6.5603Y-4.3978
X6.5603Y-4.8978
X6.6497Y-3.0647
X6.6497Y-3.5647
X6.6603Y-4.3978
X6.6603Y-4.8978
X6.7497Y-3.0647
X6.7497Y-3.5647
X6.7603Y-4.3978
X6.7603Y-4.8978
X6.8497Y-3.0647
X6.8497Y-3.5647
X6.8603Y-4.3978
X6.8603Y-4.8978
X6.9497Y-3.0647
X6.9497Y-3.5647
X6.9603Y-4.3978
X6.9603Y-4.8978
X7.0603Y-4.3978
X7.0603Y-4.8978
T4
X2.4082Y-3.9385
X2.414Y-3.4975
X2.419Y-4.4175
X2.4282Y-4.8985
X2.439Y-2.0575
X2.444Y-2.4025
X2.444Y-2.7525
X2.4482Y-3.1285
X2.5082Y-3.9385
X2.514Y-3.4975
X2.519Y-4.4175
X2.5282Y-4.8985
X2.539Y-2.0575
X2.544Y-2.4025
X2.544Y-2.7525
X2.5482Y-3.1285
X3.0482Y-3.0885
X3.2516Y-4.8148
X3.3482Y-5.2485
X3.3516Y-4.8148
X3.4282Y-3.7085
X3.4482Y-5.2485
X3.5482Y-5.2485
X3.944Y-4.5325
X3.9879Y-3.7383
X4.044Y-4.5325
X4.0879Y-3.7383
X4.3206Y-5.2485
X4.4087Y-4.6277
X4.4206Y-5.2485
X4.5087Y-4.6277
X4.5206Y-5.2485
X4.6206Y-5.2485
X4.7239Y-3.7374
X4.759Y-4.1475
X4.8239Y-3.7374
X4.859Y-4.1475
X5.1867Y-5.0805
X5.2867Y-5.0805
X5.3607Y-3.7868
X5.3867Y-5.0805
X5.4095Y-4.1356
X5.4426Y-2.9009
X5.4607Y-3.7868
X5.4867Y-5.0805
X5.5095Y-4.1356
X5.5426Y-2.9009
X5.5607Y-3.7868
X5.5867Y-5.0805
X5.6095Y-4.1356
X5.6426Y-2.9009
X5.6607Y-3.7868
X5.6867Y-5.0805
X5.7095Y-4.1356
X5.7426Y-2.9009
X5.7607Y-3.7868
X5.7682Y-2.7285
X5.8607Y-3.7868
X5.8682Y-2.7285
X5.9682Y-2.7285
X6.0682Y-2.7285
X6.1682Y-2.7285
X6.2682Y-2.7285
X6.2875Y-3.7868
X6.3682Y-2.7285
X6.3875Y-3.7868
X6.3972Y-5.0995
X6.4583Y-2.9019
X6.4682Y-2.7285
X6.4875Y-3.7868
X6.4972Y-5.0995
X6.5583Y-2.9019
X6.5709Y-4.1553
X6.5875Y-3.7868
X6.5972Y-5.0995
X6.6583Y-2.9019
X6.6709Y-4.1553
X6.6875Y-3.7868
X6.6972Y-5.0995
X6.7583Y-2.9019
X6.7709Y-4.1553
X6.7875Y-3.7868
X6.7972Y-5.0995
X6.8709Y-4.1553
X6.8972Y-5.0995
T5
X2.1282Y-2.0585
X2.1282Y-2.1585
X2.1282Y-2.333
X2.1282Y-2.433
X2.1282Y-2.6086
X2.1282Y-2.7086
X2.1298Y-2.8842
X2.1298Y-2.9842
X2.1482Y-3.4835
X2.1482Y-3.5835
X2.1482Y-3.6835
X2.1482Y-3.7835
X2.1482Y-3.9575
X2.1482Y-4.0575
X2.1482Y-4.1575
X2.1482Y-4.2575
X2.1482Y-4.4449
X2.1482Y-4.5449
X2.1482Y-4.6449
X2.1482Y-4.7449
X2.1482Y-4.9085
X2.1482Y-5.0085
X2.1482Y-5.1085
X2.1482Y-5.2085
X3.691Y-2.1285
X3.791Y-2.1285
X3.9482Y-2.7713
X3.9682Y-2.1285
X4.0482Y-2.7713
X4.0682Y-2.1285
X4.1482Y-2.7713
X4.2554Y-2.1285
X4.3554Y-2.1285
X4.6082Y-2.4485
X4.7082Y-2.4485
X4.8082Y-2.4485
X5.1573Y-2.3666
X5.1632Y-2.1185
X5.2573Y-2.3666
X5.2632Y-2.1185
X5.3573Y-2.3666
X5.7182Y-2.1185
X5.7282Y-2.3666
X5.8182Y-2.1185
X5.8282Y-2.3666
X5.9282Y-2.3666
X6.2991Y-2.3666
X6.3032Y-2.1185
X6.3991Y-2.3666
X6.4032Y-2.1185
X6.4991Y-2.3666
X6.8699Y-2.3666
X6.8928Y-2.1101
X6.9699Y-2.3666
X6.9928Y-2.1101
X7.0699Y-2.3666
T6
X2.9682Y-4.9285
X3.0482Y-2.5685
X4.8682Y-3.3285
X7.1382Y-2.8035
M30
