M48
; DRILL file {KiCad 8.0.3} date 2024-09-18T10:17:08+0200
; FORMAT={-:-/ absolute / inch / decimal}
; #@! TF.CreationDate,2024-09-18T10:17:08+02:00
; #@! TF.GenerationSoftware,Kicad,Pcbnew,8.0.3
; #@! TF.FileFunction,NonPlated,1,2,NPTH
FMAT,2
INCH
; #@! TA.AperFunction,NonPlated,NPTH,ComponentDrill
T1C0.0433
%
G90
G05
T1
X2.0282Y-2.0585
X2.0282Y-2.1585
X2.0282Y-2.333
X2.0282Y-2.433
X2.0282Y-2.6086
X2.0282Y-2.7086
X2.0298Y-2.8842
X2.0298Y-2.9842
X3.691Y-2.0285
X3.791Y-2.0285
X3.9682Y-2.0285
X4.0682Y-2.0285
X4.2554Y-2.0285
X4.3554Y-2.0285
X5.1632Y-2.0185
X5.2632Y-2.0185
X5.7182Y-2.0185
X5.8182Y-2.0185
X6.3032Y-2.0185
X6.4032Y-2.0185
X6.8928Y-2.0101
X6.9928Y-2.0101
M30
